<?xml version="1.0" encoding="UTF-8" standalone="no"?>
<svg xmlns="http://www.w3.org/2000/svg" version="1.1" viewBox="0.00 0.00 1958.00 467.00">
  <g stroke-width="2.00" fill="none" stroke-linecap="butt">
    <path stroke="#cb785c" vector-effect="non-scaling-stroke" d="   M 569.98 119.77   L 233.81 119.77   A 0.92 0.92 0.0 0 0 232.90 120.69   L 232.88 230.28"></path>
    <path stroke="#4c4d4b" vector-effect="non-scaling-stroke" d="   M 1340.36 143.77   L 1340.20 122.51   A 1.76 1.76 0.0 0 0 1338.44 120.76   L 1286.17 120.97   A 1.74 1.73 -89.7 0 0 1284.45 122.68   Q 1284.38 127.84 1284.60 133.27   Q 1284.91 141.20 1284.91 143.91   Q 1284.99 190.84 1284.90 232.02   A 0.71 0.71 0.0 0 1 1284.41 232.69   Q 1284.27 232.73 1284.03 232.46"></path>
    <path stroke="#4c4d4b" vector-effect="non-scaling-stroke" d="   M 1772.52 233.01   Q 1773.60 233.69 1775.00 233.70   Q 1833.00 234.09 1891.00 233.74   Q 1892.00 233.73 1892.70 233.01"></path>
    <path stroke="#4c4d4b" vector-effect="non-scaling-stroke" d="   M 1949.75 289.24   L 1608.96 289.29"></path>
    <path stroke="#4c4d4b" vector-effect="non-scaling-stroke" d="   M 1607.29 289.15   Q 1602.92 288.43 1598.61 287.73   Q 1593.40 286.87 1590.07 285.81   Q 1573.16 280.42 1558.63 268.01   Q 1556.49 266.19 1554.47 267.71   Q 1541.95 277.16 1527.81 283.00   Q 1515.14 288.24 1501.15 289.90"></path>
    <path stroke="#4c4d4b" vector-effect="non-scaling-stroke" d="   M 1488.47 289.96   Q 1474.98 288.36 1463.95 284.06   Q 1451.81 279.33 1436.78 268.84   Q 1434.21 267.04 1431.97 268.69   Q 1417.71 279.23 1403.17 284.36   Q 1390.67 288.77 1382.74 288.92   Q 1355.40 289.44 1307.85 289.16   C 1306.58 289.15 1305.11 289.54 1303.50 289.54   Q 1197.10 289.52 1107.55 289.54   A 2.40 2.40 0.0 0 0 1105.16 292.12   Q 1107.76 326.35 1096.20 358.55   Q 1088.43 380.21 1074.49 397.50   Q 1048.79 429.37 1010.40 444.90   Q 990.54 452.93 969.23 455.75"></path>
    <path stroke="#4c4d4b" vector-effect="non-scaling-stroke" d="   M 967.15 456.38   L 959.30 456.92"></path>
    <path stroke="#4c4d4b" vector-effect="non-scaling-stroke" d="   M 940.43 456.89   Q 936.59 455.86 932.96 456.47"></path>
    <path stroke="#4c4d4b" vector-effect="non-scaling-stroke" d="   M 930.26 455.95   Q 923.70 454.64 917.32 453.19   Q 873.80 443.29 843.13 411.81   Q 816.48 384.46 805.98 349.12   Q 801.58 334.32 800.20 320.75   A 0.23 0.23 0.0 0 0 799.77 320.68   Q 799.74 320.73 799.63 320.96"></path>
    <path stroke="#4c4d4b" vector-effect="non-scaling-stroke" d="   M 799.60 320.19   Q 800.11 314.22 799.08 308.42"></path>
    <path stroke="#4c4d4b" vector-effect="non-scaling-stroke" d="   M 799.16 273.96   L 799.18 253.51"></path>
    <path stroke="#4c4d4b" vector-effect="non-scaling-stroke" d="   M 799.00 233.52   Q 829.67 234.37 852.13 233.72   Q 854.09 233.67 854.92 235.29"></path>
    <path stroke="#4c4d4b" vector-effect="non-scaling-stroke" d="   M 854.92 270.54   Q 854.62 278.01 854.24 285.48   Q 853.69 296.24 854.89 306.94   Q 854.94 307.35 855.32 307.78"></path>
    <path stroke="#4c4d4b" vector-effect="non-scaling-stroke" d="   M 855.32 309.27   Q 855.01 329.04 864.09 346.66   Q 873.02 363.96 887.59 377.19   Q 899.41 387.90 912.38 393.40   Q 929.62 400.69 950.20 401.69   Q 976.19 402.96 1000.55 389.00   C 1018.56 378.68 1033.67 363.31 1041.62 344.29   Q 1045.59 334.80 1047.61 325.12   Q 1051.23 307.88 1049.29 290.41"></path>
    <path stroke="#4c4d4b" vector-effect="non-scaling-stroke" d="   M 1047.21 289.96   Q 1044.35 289.75 1041.50 289.72   Q 1014.60 289.42 987.71 289.51   C 986.44 289.52 985.29 289.17 984.02 288.95"></path>
    <path stroke="#4c4d4b" vector-effect="non-scaling-stroke" d="   M 984.04 242.73   Q 984.84 239.66 984.08 236.44"></path>
    <path stroke="#4c4d4b" vector-effect="non-scaling-stroke" d="   M 984.10 234.57   Q 985.22 233.39 986.40 233.38   Q 1003.55 233.21 1020.71 233.04"></path>
    <path stroke="#4c4d4b" vector-effect="non-scaling-stroke" d="   M 1340.45 232.21   Q 1340.45 233.83 1342.37 233.86   Q 1357.25 234.10 1377.49 233.35   Q 1386.09 233.03 1392.80 227.81   Q 1405.05 218.28 1405.73 203.03"></path>
    <path stroke="#4c4d4b" vector-effect="non-scaling-stroke" d="   M 1528.12 146.15   Q 1528.89 135.40 1528.20 124.58"></path>
    <path stroke="#4c4d4b" vector-effect="non-scaling-stroke" d="   M 1584.22 202.64   Q 1584.59 216.57 1594.93 225.89   C 1598.77 229.35 1603.21 231.61 1608.00 232.46   Q 1614.56 233.62 1619.01 233.68   Q 1637.43 233.95 1661.51 233.89   C 1662.50 233.89 1663.53 233.43 1664.52 233.42   Q 1688.61 233.04 1712.71 233.09"></path>
    <path stroke="#4c4d4b" vector-effect="non-scaling-stroke" d="   M 1771.93 232.71   Q 1771.10 232.50 1771.11 231.31   Q 1771.28 178.35 1771.21 122.38   A 1.67 1.67 0.0 0 0 1769.53 120.72   L 1716.80 121.02   A 1.04 1.04 0.0 0 0 1715.76 122.06   L 1715.70 232.63"></path>
    <path stroke="#4c4d4b" vector-effect="non-scaling-stroke" d="   M 1584.01 122.06   Q 1583.32 121.54 1582.71 121.21   Q 1582.09 120.87 1581.21 120.87   Q 1555.98 120.95 1530.75 120.91   Q 1529.89 120.91 1529.30 121.23   Q 1528.68 121.56 1528.05 122.10"></path>
    <path stroke="#4c4d4b" vector-effect="non-scaling-stroke" d="   M 1527.54 201.41   Q 1527.69 214.13 1520.02 222.86   Q 1513.76 229.96 1504.75 232.57   Q 1495.70 235.18 1485.80 232.42   Q 1475.85 229.64 1468.77 221.23   Q 1465.24 217.05 1463.78 210.98   Q 1461.99 203.56 1462.02 199.50   Q 1462.41 156.37 1462.15 122.72   A 1.95 1.95 0.0 0 0 1460.19 120.79   Q 1439.78 120.96 1408.75 120.81   Q 1407.32 120.81 1406.00 121.74"></path>
    <path stroke="#4c4d4b" vector-effect="non-scaling-stroke" d="   M 1949.76 120.48   Q 1922.99 121.32 1895.65 120.70   A 1.94 1.94 0.0 0 0 1893.67 122.57   C 1893.43 128.91 1893.90 136.05 1893.90 141.82   Q 1893.97 219.28 1893.91 231.06   Q 1893.91 232.67 1892.70 233.01"></path>
    <path stroke="#4c4d4b" vector-effect="non-scaling-stroke" d="   M 1633.23 346.05   L 1631.10 347.75"></path>
    <path stroke="#4c4d4b" vector-effect="non-scaling-stroke" d="   M 1771.12 346.37   L 1771.07 458.74"></path>
    <path stroke="#4c4d4b" vector-effect="non-scaling-stroke" d="   M 1715.50 458.76   Q 1715.97 431.86 1715.50 405.00   Q 1715.48 403.87 1715.09 403.43"></path>
    <path stroke="#4c4d4b" vector-effect="non-scaling-stroke" d="   M 1714.80 403.00   Q 1714.04 401.75 1712.70 402.33"></path>
    <path stroke="#4c4d4b" vector-effect="non-scaling-stroke" d="   M 1704.99 402.53   Q 1668.23 401.59 1631.53 402.32"></path>
  </g>
  <rect fill="#000000" x="1837.00" y="8.25" width="112.76" height="55.74" rx="0.49"></rect>
  <path fill="#979996" d="   M 569.98 119.77   L 233.81 119.77   A 0.92 0.92 0.0 0 0 232.90 120.69   L 232.88 230.28   L 232.45 229.94   Q 232.03 229.60 232.03 229.07   L 232.03 120.99   A 1.99 1.99 0.0 0 1 234.02 119.00   L 569.29 119.00   Q 569.73 119.00 569.89 119.42   Q 569.99 119.67 569.98 119.77   Z"></path>
  <path fill="#ff5722" d="   M 569.98 119.77   L 570.01 230.08   A 0.92 0.92 0.0 0 1 569.09 231.00   Q 401.87 231.00 234.50 231.00   Q 233.16 231.00 232.88 230.28   L 232.90 120.69   A 0.92 0.92 0.0 0 1 233.81 119.77   L 569.98 119.77   Z"></path>
  <path fill="#979996" d="   M 1340.36 143.77   L 1340.20 122.51   A 1.76 1.76 0.0 0 0 1338.44 120.76   L 1286.17 120.97   A 1.74 1.73 -89.7 0 0 1284.45 122.68   Q 1284.38 127.84 1284.60 133.27   Q 1284.91 141.20 1284.91 143.91   Q 1284.99 190.84 1284.90 232.02   A 0.71 0.71 0.0 0 1 1284.41 232.69   Q 1284.27 232.73 1284.03 232.46   L 1284.05 122.16   A 2.14 2.14 0.0 0 1 1286.18 120.02   Q 1310.75 119.93 1335.97 120.08   C 1337.24 120.08 1338.68 120.39 1339.72 120.60   Q 1340.21 120.70 1340.43 121.15   Q 1340.88 122.04 1340.93 127.00   Q 1341.05 137.92 1340.36 143.77   Z"></path>
  <path fill="#979996" d="   M 1527.54 201.41   Q 1527.69 214.13 1520.02 222.86   Q 1513.76 229.96 1504.75 232.57   Q 1495.70 235.18 1485.80 232.42   Q 1475.85 229.64 1468.77 221.23   Q 1465.24 217.05 1463.78 210.98   Q 1461.99 203.56 1462.02 199.50   Q 1462.41 156.37 1462.15 122.72   A 1.95 1.95 0.0 0 0 1460.19 120.79   Q 1439.78 120.96 1408.75 120.81   Q 1407.32 120.81 1406.00 121.74   Q 1405.92 121.07 1406.04 120.55   Q 1406.17 120.02 1406.72 120.02   L 1460.70 120.03   Q 1463.00 120.03 1463.00 122.34   Q 1462.98 174.89 1463.07 202.75   Q 1463.08 206.18 1465.03 212.64   Q 1466.53 217.61 1469.80 221.25   Q 1475.65 227.76 1482.38 230.57   Q 1489.57 233.57 1497.41 233.06   Q 1509.50 232.26 1518.14 223.42   Q 1526.75 214.60 1527.54 201.41   Z"></path>
  <path fill="#979996" d="   M 1584.01 122.06   Q 1583.32 121.54 1582.71 121.21   Q 1582.09 120.87 1581.21 120.87   Q 1555.98 120.95 1530.75 120.91   Q 1529.89 120.91 1529.30 121.23   Q 1528.68 121.56 1528.05 122.10   Q 1528.45 120.03 1531.00 120.02   Q 1556.26 119.98 1581.52 119.99   Q 1582.55 119.99 1583.10 120.50   Q 1583.80 121.15 1584.01 122.06   Z"></path>
  <path fill="#979996" d="   M 1771.93 232.71   Q 1771.10 232.50 1771.11 231.31   Q 1771.28 178.35 1771.21 122.38   A 1.67 1.67 0.0 0 0 1769.53 120.72   L 1716.80 121.02   A 1.04 1.04 0.0 0 0 1715.76 122.06   L 1715.70 232.63   Q 1714.83 225.09 1714.88 209.00   C 1714.96 180.51 1714.59 151.28 1715.17 121.94   A 2.00 1.98 0.6 0 1 1717.17 120.00   L 1769.77 120.03   Q 1771.98 120.03 1771.98 122.24   L 1771.93 232.71   Z"></path>
  <path fill="#979996" d="   M 1949.76 120.48   Q 1922.99 121.32 1895.65 120.70   A 1.94 1.94 0.0 0 0 1893.67 122.57   C 1893.43 128.91 1893.90 136.05 1893.90 141.82   Q 1893.97 219.28 1893.91 231.06   Q 1893.91 232.67 1892.70 233.01   L 1893.07 122.25   Q 1893.07 120.86 1894.39 120.43   C 1896.23 119.83 1898.33 120.01 1900.41 119.98   Q 1925.09 119.67 1949.76 120.48   Z"></path>
  <path fill="#000000" d="   M 1771.93 232.71   Q 1772.28 233.00 1772.52 233.01   Q 1773.60 233.69 1775.00 233.70   Q 1833.00 234.09 1891.00 233.74   Q 1892.00 233.73 1892.70 233.01   Q 1893.91 232.67 1893.91 231.06   Q 1893.97 219.28 1893.90 141.82   C 1893.90 136.05 1893.43 128.91 1893.67 122.57   A 1.94 1.94 0.0 0 1 1895.65 120.70   Q 1922.99 121.32 1949.76 120.48   L 1949.75 289.24   L 1608.96 289.29   Q 1607.73 289.68 1607.29 289.15   Q 1602.92 288.43 1598.61 287.73   Q 1593.40 286.87 1590.07 285.81   Q 1573.16 280.42 1558.63 268.01   Q 1556.49 266.19 1554.47 267.71   Q 1541.95 277.16 1527.81 283.00   Q 1515.14 288.24 1501.15 289.90   L 1488.47 289.96   Q 1474.98 288.36 1463.95 284.06   Q 1451.81 279.33 1436.78 268.84   Q 1434.21 267.04 1431.97 268.69   Q 1417.71 279.23 1403.17 284.36   Q 1390.67 288.77 1382.74 288.92   Q 1355.40 289.44 1307.85 289.16   C 1306.58 289.15 1305.11 289.54 1303.50 289.54   Q 1197.10 289.52 1107.55 289.54   A 2.40 2.40 0.0 0 0 1105.16 292.12   Q 1107.76 326.35 1096.20 358.55   Q 1088.43 380.21 1074.49 397.50   Q 1048.79 429.37 1010.40 444.90   Q 990.54 452.93 969.23 455.75   Q 967.46 456.03 967.15 456.38   L 959.30 456.92   L 940.43 456.89   Q 936.59 455.86 932.96 456.47   Q 932.57 455.77 930.26 455.95   Q 923.70 454.64 917.32 453.19   Q 873.80 443.29 843.13 411.81   Q 816.48 384.46 805.98 349.12   Q 801.58 334.32 800.20 320.75   A 0.23 0.23 0.0 0 0 799.77 320.68   Q 799.74 320.73 799.63 320.96   L 799.60 320.19   Q 800.11 314.22 799.08 308.42   L 798.95 274.32   Q 798.95 274.23 799.00 274.16   Q 799.08 274.06 799.16 273.96   L 799.18 253.51   L 799.00 233.52   Q 829.67 234.37 852.13 233.72   Q 854.09 233.67 854.92 235.29   L 854.92 270.54   Q 854.62 278.01 854.24 285.48   Q 853.69 296.24 854.89 306.94   Q 854.94 307.35 855.32 307.78   Q 855.63 308.72 855.32 309.27   Q 855.01 329.04 864.09 346.66   Q 873.02 363.96 887.59 377.19   Q 899.41 387.90 912.38 393.40   Q 929.62 400.69 950.20 401.69   Q 976.19 402.96 1000.55 389.00   C 1018.56 378.68 1033.67 363.31 1041.62 344.29   Q 1045.59 334.80 1047.61 325.12   Q 1051.23 307.88 1049.29 290.41   Q 1047.90 289.89 1047.21 289.96   Q 1044.35 289.75 1041.50 289.72   Q 1014.60 289.42 987.71 289.51   C 986.44 289.52 985.29 289.17 984.02 288.95   L 984.04 242.73   Q 984.84 239.66 984.08 236.44   L 984.10 234.57   Q 985.22 233.39 986.40 233.38   Q 1003.55 233.21 1020.71 233.04   Q 1152.10 232.91 1283.50 233.08   Q 1284.31 233.08 1284.03 232.46   Q 1284.27 232.73 1284.41 232.69   A 0.71 0.71 0.0 0 0 1284.90 232.02   Q 1284.99 190.84 1284.91 143.91   Q 1284.91 141.20 1284.60 133.27   Q 1284.38 127.84 1284.45 122.68   A 1.74 1.73 -89.7 0 1 1286.17 120.97   L 1338.44 120.76   A 1.76 1.76 0.0 0 1 1340.20 122.51   L 1340.36 143.77   Q 1340.17 152.30 1340.14 161.00   Q 1340.01 196.25 1339.99 231.50   Q 1339.99 231.79 1340.45 232.21   Q 1340.45 233.83 1342.37 233.86   Q 1357.25 234.10 1377.49 233.35   Q 1386.09 233.03 1392.80 227.81   Q 1405.05 218.28 1405.73 203.03   L 1406.00 121.74   Q 1407.32 120.81 1408.75 120.81   Q 1439.78 120.96 1460.19 120.79   A 1.95 1.95 0.0 0 1 1462.15 122.72   Q 1462.41 156.37 1462.02 199.50   Q 1461.99 203.56 1463.78 210.98   Q 1465.24 217.05 1468.77 221.23   Q 1475.85 229.64 1485.80 232.42   Q 1495.70 235.18 1504.75 232.57   Q 1513.76 229.96 1520.02 222.86   Q 1527.69 214.13 1527.54 201.41   L 1528.12 146.15   Q 1528.89 135.40 1528.20 124.58   Q 1527.88 123.40 1528.05 122.10   Q 1528.68 121.56 1529.30 121.23   Q 1529.89 120.91 1530.75 120.91   Q 1555.98 120.95 1581.21 120.87   Q 1582.09 120.87 1582.71 121.21   Q 1583.32 121.54 1584.01 122.06   L 1584.22 202.64   Q 1584.59 216.57 1594.93 225.89   C 1598.77 229.35 1603.21 231.61 1608.00 232.46   Q 1614.56 233.62 1619.01 233.68   Q 1637.43 233.95 1661.51 233.89   C 1662.50 233.89 1663.53 233.43 1664.52 233.42   Q 1688.61 233.04 1712.71 233.09   L 1715.70 232.63   L 1715.76 122.06   A 1.04 1.04 0.0 0 1 1716.80 121.02   L 1769.53 120.72   A 1.67 1.67 0.0 0 1 1771.21 122.38   Q 1771.28 178.35 1771.11 231.31   Q 1771.10 232.50 1771.93 232.71   Z"></path>
  <path fill="#979996" d="   M 1528.12 146.15   L 1528.20 124.58   Q 1528.89 135.40 1528.12 146.15   Z"></path>
  <path fill="#979996" d="   M 1584.22 202.64   Q 1585.74 211.86 1587.70 215.30   Q 1593.43 225.36 1601.52 229.53   Q 1607.73 232.73 1618.00 232.78   Q 1665.35 233.03 1712.71 233.09   Q 1688.61 233.04 1664.52 233.42   C 1663.53 233.43 1662.50 233.89 1661.51 233.89   Q 1637.43 233.95 1619.01 233.68   Q 1614.56 233.62 1608.00 232.46   C 1603.21 231.61 1598.77 229.35 1594.93 225.89   Q 1584.59 216.57 1584.22 202.64   Z"></path>
  <path fill="#979996" d="   M 1340.45 232.21   Q 1340.76 232.57 1341.11 232.81   Q 1341.43 233.03 1341.94 233.03   Q 1358.35 232.97 1375.25 233.02   Q 1379.71 233.03 1385.13 231.19   Q 1389.62 229.67 1393.48 226.00   C 1397.43 222.24 1401.64 217.89 1403.17 212.96   Q 1404.50 208.68 1404.56 208.50   Q 1404.82 207.62 1404.93 205.76   Q 1405.03 204.14 1405.73 203.03   Q 1405.05 218.28 1392.80 227.81   Q 1386.09 233.03 1377.49 233.35   Q 1357.25 234.10 1342.37 233.86   Q 1340.45 233.83 1340.45 232.21   Z"></path>
  <path fill="#979996" d="   M 854.92 235.29   Q 854.09 233.67 852.13 233.72   Q 829.67 234.37 799.00 233.52   Q 825.49 232.57 851.99 233.00   Q 855.19 233.06 854.92 235.29   Z"></path>
  <path fill="#979996" d="   M 1020.71 233.04   Q 1003.55 233.21 986.40 233.38   Q 985.22 233.39 984.10 234.57   Q 983.92 233.96 983.99 233.54   Q 984.08 233.01 984.62 233.01   L 1020.71 233.04   Z"></path>
  <path fill="#979996" d="   M 1892.70 233.01   Q 1892.00 233.73 1891.00 233.74   Q 1833.00 234.09 1775.00 233.70   Q 1773.60 233.69 1772.52 233.01   L 1892.70 233.01   Z"></path>
  <path fill="#979996" d="   M 984.04 242.73   L 984.08 236.44   Q 984.84 239.66 984.04 242.73   Z"></path>
  <path fill="#979996" d="   M 799.16 273.96   L 799.18 253.51   L 799.16 273.96   Z"></path>
  <path fill="#979996" d="   M 1607.29 289.15   Q 1596.76 288.92 1588.79 286.24   Q 1583.82 284.56 1574.32 279.76   Q 1570.19 277.66 1565.87 274.47   Q 1557.93 268.61 1557.78 268.49   A 1.65 1.11 53.4 0 0 1556.84 268.16   Q 1555.28 268.24 1553.92 269.15   Q 1538.12 279.78 1529.47 283.23   Q 1520.81 286.68 1512.03 288.83   Q 1506.69 290.13 1501.15 289.90   Q 1515.14 288.24 1527.81 283.00   Q 1541.95 277.16 1554.47 267.71   Q 1556.49 266.19 1558.63 268.01   Q 1573.16 280.42 1590.07 285.81   Q 1593.40 286.87 1598.61 287.73   Q 1602.92 288.43 1607.29 289.15   Z"></path>
  <path fill="#979996" d="   M 1488.47 289.96   Q 1477.62 289.62 1468.38 286.35   Q 1450.32 279.95 1435.27 268.23   A 1.19 1.19 0.0 0 0 1433.84 268.21   Q 1430.30 270.80 1428.84 271.81   Q 1413.88 282.22 1398.29 286.70   Q 1386.12 290.21 1370.42 290.01   Q 1370.39 290.01 1363.58 290.01   Q 1173.84 289.94 1108.04 290.00   A 2.11 2.11 0.0 0 0 1105.93 292.11   Q 1105.94 299.60 1106.00 307.05   Q 1106.06 314.58 1105.28 321.96   Q 1103.69 337.02 1099.12 352.38   Q 1092.52 374.62 1078.33 393.82   Q 1069.13 406.27 1059.35 415.08   Q 1025.72 445.39 981.00 454.42   Q 978.79 454.87 977.84 455.00   Q 976.34 455.21 974.69 455.64   Q 972.08 456.32 969.23 455.75   Q 990.54 452.93 1010.40 444.90   Q 1048.79 429.37 1074.49 397.50   Q 1088.43 380.21 1096.20 358.55   Q 1107.76 326.35 1105.16 292.12   A 2.40 2.40 0.0 0 1 1107.55 289.54   Q 1197.10 289.52 1303.50 289.54   C 1305.11 289.54 1306.58 289.15 1307.85 289.16   Q 1355.40 289.44 1382.74 288.92   Q 1390.67 288.77 1403.17 284.36   Q 1417.71 279.23 1431.97 268.69   Q 1434.21 267.04 1436.78 268.84   Q 1451.81 279.33 1463.95 284.06   Q 1474.98 288.36 1488.47 289.96   Z"></path>
  <path fill="#979996" d="   M 854.92 270.54   L 855.32 307.78   Q 854.94 307.35 854.89 306.94   Q 853.69 296.24 854.24 285.48   Q 854.62 278.01 854.92 270.54   Z"></path>
  <path fill="#979996" d="   M 1047.21 289.96   L 984.58 289.93   Q 984.00 289.93 984.01 289.35   L 984.02 288.95   C 985.29 289.17 986.44 289.52 987.71 289.51   Q 1014.60 289.42 1041.50 289.72   Q 1044.35 289.75 1047.21 289.96   Z"></path>
  <path fill="#979996" d="   M 1949.75 289.24   Q 1949.82 289.62 1949.75 289.70   A 0.94 0.94 0.0 0 1 1949.05 290.01   Q 1784.13 289.97 1619.75 290.01   Q 1613.53 290.01 1608.96 289.29   L 1949.75 289.24   Z"></path>
  <path fill="#979996" d="   M 855.32 309.27   Q 856.69 325.72 859.11 332.87   Q 867.03 356.27 885.25 373.77   Q 895.24 383.36 905.25 388.99   Q 913.56 393.67 923.46 396.64   Q 944.19 402.87 965.92 400.25   Q 975.77 399.07 985.25 395.36   Q 1010.32 385.54 1027.63 365.37   Q 1037.15 354.27 1043.18 338.46   Q 1044.64 334.63 1045.39 331.33   Q 1046.03 328.49 1047.19 324.06   C 1047.87 321.47 1047.80 318.85 1048.35 316.31   Q 1048.61 315.10 1048.65 313.18   Q 1048.90 301.87 1049.29 290.41   Q 1051.23 307.88 1047.61 325.12   Q 1045.59 334.80 1041.62 344.29   C 1033.67 363.31 1018.56 378.68 1000.55 389.00   Q 976.19 402.96 950.20 401.69   Q 929.62 400.69 912.38 393.40   Q 899.41 387.90 887.59 377.19   Q 873.02 363.96 864.09 346.66   Q 855.01 329.04 855.32 309.27   Z"></path>
  <path fill="#979996" d="   M 799.60 320.19   L 799.08 308.42   Q 800.11 314.22 799.60 320.19   Z"></path>
  <path fill="#979996" d="   M 930.26 455.95   Q 920.19 455.19 912.50 453.00   Q 908.75 451.94 896.31 447.70   Q 892.31 446.33 889.86 445.03   Q 887.78 443.92 885.64 443.00   Q 883.28 441.97 881.38 440.98   Q 842.11 420.49 819.65 382.19   Q 817.68 378.82 813.55 370.23   Q 810.03 362.89 808.19 357.88   Q 801.63 340.02 799.63 320.96   Q 799.74 320.73 799.77 320.68   A 0.23 0.23 0.0 0 1 800.20 320.75   Q 801.58 334.32 805.98 349.12   Q 816.48 384.46 843.13 411.81   Q 873.80 443.29 917.32 453.19   Q 923.70 454.64 930.26 455.95   Z"></path>
  <rect fill="#ff5722" x="8.27" y="343.00" width="561.74" height="112.00" rx="0.51"></rect>
  <path fill="#979996" d="   M 1633.23 346.05   L 1631.10 347.75   Q 1630.94 347.14 1631.03 346.69   Q 1631.14 346.14 1631.70 346.12   L 1633.23 346.05   Z"></path>
  <path fill="#000000" d="   M 1771.12 346.37   L 1771.07 458.74   L 1715.50 458.76   Q 1715.97 431.86 1715.50 405.00   Q 1715.48 403.87 1715.09 403.43   Q 1714.77 403.68 1714.80 403.00   Q 1714.04 401.75 1712.70 402.33   L 1704.99 402.53   Q 1668.23 401.59 1631.53 402.32   Q 1630.92 398.68 1630.92 396.75   Q 1630.86 382.12 1631.10 347.75   L 1633.23 346.05   L 1771.12 346.37   Z"></path>
  <path fill="#979996" d="   M 1771.07 458.74   L 1771.12 346.37   Q 1771.32 346.38 1771.65 346.81   Q 1771.97 347.24 1771.97 347.78   L 1772.01 458.17   A 0.64 0.63 -29.0 0 1 1771.91 458.51   Q 1771.58 459.04 1771.07 458.74   Z"></path>
  <path fill="#979996" d="   M 1704.99 402.53   Q 1675.56 403.24 1636.00 402.98   Q 1633.05 402.96 1631.53 402.32   Q 1668.23 401.59 1704.99 402.53   Z"></path>
  <path fill="#979996" d="   M 1714.80 403.00   L 1712.70 402.33   Q 1714.04 401.75 1714.80 403.00   Z"></path>
  <path fill="#979996" d="   M 1715.50 458.76   Q 1714.45 431.18 1715.09 403.43   Q 1715.48 403.87 1715.50 405.00   Q 1715.97 431.86 1715.50 458.76   Z"></path>
  <path fill="#979996" d="   M 967.15 456.38   Q 963.71 457.41 959.30 456.92   L 967.15 456.38   Z"></path>
  <path fill="#979996" d="   M 940.43 456.89   Q 936.28 457.42 932.96 456.47   Q 936.59 455.86 940.43 456.89   Z"></path>
  <rect fill="#979996" x="8.15" y="458.10" width="334.06" height="0.96" rx="0.47"></rect>
  <path fill="#979996" d="   M 950.48 458.00   Q 963.58 457.96 976.67 458.00   Q 976.86 458.00 976.86 458.09   L 976.87 458.36   Q 976.88 458.79 976.63 458.83   Q 963.65 461.05 950.49 461.00   Q 937.32 461.08 924.34 458.89   Q 924.09 458.85 924.09 458.42   L 924.10 458.15   Q 924.10 458.06 924.29 458.06   Q 937.38 457.99 950.48 458.00   Z"></path>
</svg>
